<?xml version="1.0" encoding="UTF-8"?>
<svg width="34px" height="34px" viewBox="0 0 34 34" version="1.1" xmlns="http://www.w3.org/2000/svg" xmlns:xlink="http://www.w3.org/1999/xlink">
    <!-- Generator: Sketch 58 (84663) - https://sketch.com -->
    <title>twitter-pos copy 3</title>
    <desc>Created with Sketch.</desc>
    <g id="Symbols" stroke="none" stroke-width="1" fill="none" fill-rule="evenodd">
        <g id="footer" transform="translate(-777.000000, -40.000000)">
            <g id="Group" transform="translate(529.000000, 40.000000)">
                <g id="linkedin-pos" transform="translate(248.000000, 0.000000)">
                    <circle id="Oval-3" fill="#FFFFFF" cx="17" cy="17" r="15.3"></circle>
                    <path d="M17,0.566666667 C26.0758794,0.566666667 33.4333333,7.92412061 33.4333333,17 C33.4333333,26.0758794 26.0758794,33.4333333 17,33.4333333 C7.92412061,33.4333333 0.566666667,26.0758794 0.566666667,17 C0.566666667,7.92412061 7.92412061,0.566666667 17,0.566666667 Z M21.5771116,12.4666667 C20.0647591,12.4666667 19.0257881,13.2524964 18.5505613,14.0388227 L18.4802235,14.1628692 L18.4361048,14.1628692 L18.4361048,12.7283735 L15.3,12.7283735 L15.3,23.2333333 L18.5684609,23.2333333 L18.5684609,18.0358852 C18.5684609,16.6662048 18.8282711,15.3393268 20.5305178,15.3393268 C22.1471533,15.3393268 22.2276812,16.795999 22.2313712,17.9932822 L22.2315391,23.2333333 L25.5,23.2333333 L25.5,17.4721149 C25.5,14.6422573 24.8884657,12.4666667 21.5771116,12.4666667 Z M13.0333333,12.4666667 L9.63333333,12.4666667 L9.63333333,23.2333333 L13.0333333,23.2333333 L13.0333333,12.4666667 Z M11.6173071,7.36666667 C10.5196534,7.36666667 9.63333333,8.25484114 9.63333333,9.34935918 C9.63333333,10.4451589 10.5196534,11.3333333 11.6173071,11.3333333 C12.7111183,11.3333333 13.6,10.4451589 13.6,9.34935918 C13.6,8.25484114 12.7111183,7.36666667 11.6173071,7.36666667 Z" id="linkedin" fill="#FF5050"></path>
                </g>
            </g>
        </g>
    </g>
</svg>