<?xml version="1.0" encoding="UTF-8"?>
<svg width="34px" height="34px" viewBox="0 0 34 34" version="1.1" xmlns="http://www.w3.org/2000/svg" xmlns:xlink="http://www.w3.org/1999/xlink">
    <!-- Generator: Sketch 58 (84663) - https://sketch.com -->
    <title>twitter-pos copy</title>
    <desc>Created with Sketch.</desc>
    <g id="Symbols" stroke="none" stroke-width="1" fill="none" fill-rule="evenodd">
        <g id="footer" transform="translate(-680.000000, -40.000000)">
            <g id="Group" transform="translate(529.000000, 40.000000)">
                <g id="instagram-pos" transform="translate(151.000000, 0.000000)">
                    <circle id="Oval-3" fill="#FFFFFF" cx="17" cy="17" r="15.3"></circle>
                    <path d="M17.7841596,9.56740704 C19.4993523,9.56967886 19.8223572,9.58144794 20.6636754,9.61983364 C21.5476664,9.66014265 22.0277396,9.80784639 22.3472245,9.93201255 C22.7704331,10.0964877 23.0724988,10.2929582 23.3897523,10.6102477 C23.7070058,10.9275012 23.9034763,11.2295309 24.0679875,11.6527395 C24.1921536,11.9722244 24.3398214,12.4523336 24.3801664,13.3362886 C24.4202638,14.2158486 24.4313003,14.5289353 24.4328095,16.4585384 L24.4328095,17.541497 C24.4313003,19.4710951 24.4202638,19.7841514 24.3801664,20.6637114 C24.3398214,21.5477024 24.1921536,22.0277756 24.0679875,22.3472605 C23.9034763,22.7704691 23.7070058,23.0724988 23.3897523,23.3897523 C23.0724988,23.7070058 22.7704331,23.9035123 22.3472245,24.0680234 C22.0277396,24.1921536 21.5476664,24.3398573 20.6636754,24.3801664 C19.7842479,24.4202969 19.4712022,24.4313361 17.5414927,24.4328455 L16.458464,24.4328455 C14.5287314,24.4313361 14.2157161,24.4202969 13.3362886,24.3801664 C12.4522976,24.3398573 11.9722244,24.1921536 11.6527395,24.0680234 C11.2295309,23.9035123 10.9274652,23.7070058 10.6102117,23.3897883 C10.2929582,23.0724988 10.0964517,22.7704691 9.93197656,22.3472605 C9.80784639,22.0277756 9.66014265,21.5477024 9.61979765,20.6637474 C9.58141195,19.8223975 9.56967074,19.4993888 9.56740561,17.7841956 L9.56740561,16.215839 C9.56967074,14.5006396 9.58141195,14.1776068 9.61979765,13.3362886 C9.66014265,12.4523336 9.80784639,11.9722244 9.93197656,11.6527395 C10.0964517,11.2295309 10.2929582,10.9275012 10.6102117,10.6102477 C10.9274652,10.2929582 11.2295309,10.0964877 11.6527395,9.93201255 C11.9722244,9.80784639 12.4522976,9.66014265 13.3362526,9.61983364 C14.1776025,9.58144794 14.5006112,9.56967886 16.2158044,9.56740704 L17.7841596,9.56740704 Z M17.2833333,12.4666667 C14.623153,12.4666667 12.4666667,14.6231736 12.4666667,17.2833333 C12.4666667,19.9435303 14.623153,22.1 17.2833333,22.1 C19.9435137,22.1 22.1,19.9435303 22.1,17.2833333 C22.1,14.6231736 19.9435137,12.4666667 17.2833333,12.4666667 Z M17.2833333,14.1567539 C19.0101086,14.1567539 20.4099742,15.5565342 20.4099742,17.2833333 C20.4099742,19.0100952 19.0101086,20.40995 17.2833333,20.40995 C15.5565581,20.40995 14.1566925,19.0100952 14.1566925,17.2833333 C14.1566925,15.5565342 15.5565581,14.1567539 17.2833333,14.1567539 Z M21.5333521,10.7666667 C20.9074235,10.7666667 20.4,11.2740902 20.4,11.9000187 C20.4,12.5259098 20.9074235,13.0333333 21.5333521,13.0333333 C22.1592806,13.0333333 22.6666667,12.5259098 22.6666667,11.9000187 C22.6666667,11.2740902 22.1592806,10.7666667 21.5333521,10.7666667 Z M16.999982,7.93333333 C14.5376052,7.93333333 14.2288813,7.94377049 13.2618249,7.98789446 C12.296748,8.03191046 11.6376956,8.18519268 11.0609528,8.40933959 C10.4647393,8.64104443 9.95911316,8.95102794 9.45507055,9.45510654 C8.95102794,9.95914915 8.64100844,10.4647753 8.4093036,11.0609888 C8.18515669,11.6377316 8.03191046,12.296784 7.98785847,13.2618609 C7.9437345,14.2288813 7.93333333,14.5376412 7.93333333,17.000018 C7.93333333,19.4623588 7.9437345,19.7711187 7.98785847,20.7381751 C8.03191046,21.703252 8.18515669,22.3623044 8.4093036,22.9390112 C8.64100844,23.5352247 8.95102794,24.0408868 9.45507055,24.5449295 C9.95911316,25.0489721 10.4647393,25.3589916 11.0609528,25.5906604 C11.6376956,25.8148433 12.296748,25.9680895 13.2618249,26.0121055 C14.2288813,26.0562655 14.5376052,26.0666667 16.999982,26.0666667 C19.4623588,26.0666667 19.7710827,26.0562655 20.7381391,26.0121055 C21.703216,25.9680895 22.3622684,25.8148433 22.9390112,25.5906604 C23.5352247,25.3589916 24.0408509,25.0489721 24.5449295,24.5449295 C25.0489721,24.0408868 25.3589556,23.5352247 25.5906604,22.9390112 C25.8148073,22.3623044 25.9680895,21.703252 26.0121055,20.7381751 C26.0562295,19.7711187 26.0666667,19.4623588 26.0666667,17.000018 C26.0666667,14.5376412 26.0562295,14.2288813 26.0121055,13.2618609 C25.9680895,12.296784 25.8148073,11.6377316 25.5906604,11.0609888 C25.3589556,10.4647753 25.0489721,9.95914915 24.5449295,9.45510654 C24.0408509,8.95102794 23.5352247,8.64104443 22.9390112,8.40933959 C22.3622684,8.18519268 21.703216,8.03191046 20.7381391,7.98789446 C19.7710827,7.94377049 19.4623588,7.93333333 16.999982,7.93333333 M17,33.4333333 C26.0758794,33.4333333 33.4333333,26.0758794 33.4333333,17 C33.4333333,7.92412061 26.0758794,0.566666667 17,0.566666667 C7.92412061,0.566666667 0.566666667,7.92412061 0.566666667,17 C0.566666667,26.0758794 7.92412061,33.4333333 17,33.4333333 Z" id="instagram" fill="#FF5050"></path>
                </g>
            </g>
        </g>
    </g>
</svg>