<?xml version="1.0" encoding="UTF-8"?>
<svg width="34px" height="34px" viewBox="0 0 34 34" version="1.1" xmlns="http://www.w3.org/2000/svg" xmlns:xlink="http://www.w3.org/1999/xlink">
    <!-- Generator: Sketch 58 (84663) - https://sketch.com -->
    <title>twitter-pos</title>
    <desc>Created with Sketch.</desc>
    <g id="Symbols" stroke="none" stroke-width="1" fill="none" fill-rule="evenodd">
        <g id="footer" transform="translate(-631.000000, -40.000000)">
            <g id="Group" transform="translate(529.000000, 40.000000)">
                <g id="twitter-pos" transform="translate(102.000000, 0.000000)">
                    <circle id="Oval-3" fill="#FFFFFF" cx="17" cy="17" r="15.3"></circle>
                    <path d="M17,0.566666667 C26.0758794,0.566666667 33.4333333,7.92412061 33.4333333,17 C33.4333333,26.0758794 26.0758794,33.4333333 17,33.4333333 C7.92412061,33.4333333 0.566666667,26.0758794 0.566666667,17 C0.566666667,7.92412061 7.92412061,0.566666667 17,0.566666667 Z M21.0193201,10.2379395 C19.0631538,10.2379395 17.4769108,11.8242516 17.4769108,13.7795892 C17.4769108,14.0576012 17.5080542,14.3278792 17.5687528,14.5871775 C14.6251812,14.4391945 12.0148649,13.0297301 10.268209,10.8866342 C9.96374924,11.4099266 9.78855884,12.0181557 9.78855884,12.6667814 C9.78855884,13.8956692 10.4138442,14.980441 11.364651,15.6149796 C10.7836983,15.5971637 10.2378943,15.4375105 9.76052285,15.1719282 L9.7596942,15.2171586 L9.7596942,15.2171586 C9.7596942,16.9326711 10.9807789,18.3647162 12.6012728,18.689478 C12.3038566,18.7704094 11.990765,18.8141207 11.6675916,18.8141207 C11.4394366,18.8141207 11.2174965,18.7914709 11.0017714,18.7501766 C11.452695,20.1573622 12.7600974,21.1813663 14.3105704,21.210231 C13.0981175,22.1602781 11.5710538,22.7263841 9.9115443,22.7263841 C9.62579819,22.7263841 9.34391911,22.7100182 9.06666667,22.6772866 C10.6341961,23.6818865 12.4953438,24.2682253 14.4959118,24.2682253 C21.0107573,24.2682253 24.5733995,18.8708832 24.5733995,14.1907376 C24.5733995,14.0373683 24.5702921,13.8847586 24.5632485,13.7329085 C25.2548259,13.2328874 25.8559424,12.6091212 26.3302064,11.8989682 C25.6955986,12.1808473 25.012584,12.3708843 24.2962161,12.4565115 C25.0274306,12.0181557 25.58891,11.3242995 25.8536636,10.4973069 C25.1690607,10.9030001 24.4114675,11.1981375 23.6046387,11.3569621 C22.9583608,10.6686303 22.0378689,10.2379395 21.0193201,10.2379395 Z" id="twitter" fill="#FF5050"></path>
                </g>
            </g>
        </g>
    </g>
</svg>