<?xml version="1.0" encoding="UTF-8"?>
<svg width="34px" height="34px" viewBox="0 0 34 34" version="1.1" xmlns="http://www.w3.org/2000/svg" xmlns:xlink="http://www.w3.org/1999/xlink">
    <!-- Generator: Sketch 58 (84663) - https://sketch.com -->
    <title>twitter-pos copy 2</title>
    <desc>Created with Sketch.</desc>
    <g id="Symbols" stroke="none" stroke-width="1" fill="none" fill-rule="evenodd">
        <g id="footer" transform="translate(-728.000000, -40.000000)">
            <g id="Group" transform="translate(529.000000, 40.000000)">
                <g id="facebook-pos" transform="translate(199.000000, 0.000000)">
                    <circle id="Oval-3" fill="#FFFFFF" cx="17" cy="17" r="15.3"></circle>
                    <path d="M17,0.566666667 C26.0758794,0.566666667 33.4333333,7.92412061 33.4333333,17 C33.4333333,26.0758794 26.0758794,33.4333333 17,33.4333333 C7.92412061,33.4333333 0.566666667,26.0758794 0.566666667,17 C0.566666667,7.92412061 7.92412061,0.566666667 17,0.566666667 Z M18.5717839,8.5 C16.2021745,8.5 14.5799787,9.86139401 14.5799787,12.3615983 L14.5799787,14.5159966 L11.9,14.5159966 L11.9,17.437362 L14.5799787,17.437362 L14.5799787,24.9333333 L17.7849962,24.9333333 L17.7849962,17.437362 L20.4581942,17.437362 L20.8584073,14.5159966 L17.7849962,14.5159966 L17.7849962,12.6508338 C17.7849962,11.8050304 18.0344937,11.2286627 19.3231272,11.2286627 L20.9666667,11.2279374 L20.9666667,8.61509948 C20.6823413,8.57956152 19.7067739,8.5 18.5717839,8.5 Z" id="facebook" fill="#FF5050"></path>
                </g>
            </g>
        </g>
    </g>
</svg>